#tb 0: 1/44100
#media_type 0: audio
#codec_id 0: pcm_s16le
#sample_rate 0: 44100
#channel_layout_name 0: stereo
0,          0,          0,     4096,    16384, 0xb92ae60d
0,       4096,       4096,     4096,    16384, 0x4f0bf0ab
0,       8192,       8192,     4096,    16384, 0x11f9e1f7
0,      12288,      12288,     4096,    16384, 0x8f95ec65
0,      16384,      16384,     4096,    16384, 0x17b7d611
0,      20480,      20480,     4096,    16384, 0x1db5d957
0,      24576,      24576,     4096,    16384, 0xece9d3c3
0,      28672,      28672,     4096,    16384, 0x2a0ed317
0,      32768,      32768,     4096,    16384, 0x2608e5c1
0,      36864,      36864,     4096,    16384, 0x4f0bf0ab
0,      40960,      40960,     4096,    16384, 0x0e3ef431
0,      45056,      45056,     4096,    16384, 0x73cbc505
0,      49152,      49152,     4096,    16384, 0x8e5df3e3
0,      53248,      53248,     4096,    16384, 0xa342d76f
0,      57344,      57344,     4096,    16384, 0x09f4efd3
0,      61440,      61440,     4096,    16384, 0xd99d0120
0,      65536,      65536,     4096,    16384, 0xde061136
0,      69632,      69632,     4096,    16384, 0x73cbf9bb
0,      73728,      73728,     4096,    16384, 0x548fde1d
0,      77824,      77824,     4096,    16384, 0x4b61d1df
0,      81920,      81920,     4096,    16384, 0xaf59e843
0,      86016,      86016,     4096,    16384, 0xd3272f42
0,      90112,      90112,     4096,    16384, 0xa8bb8419
0,      94208,      94208,     4096,    16384, 0x4bebdfe9
0,      98304,      98304,     4096,    16384, 0x63b0da41
0,     102400,     102400,     4096,    16384, 0x6999967f
0,     106496,     106496,     4096,    16384, 0xb6a8f1e5
0,     110592,     110592,     4096,    16384, 0x4627b421
0,     114688,     114688,     4096,    16384, 0x03321ce0
0,     118784,     118784,     4096,    16384, 0xfb355c8a
0,     122880,     122880,     4096,    16384, 0xccdca1d4
0,     126976,     126976,     4096,    16384, 0x9c06765e
0,     131072,     131072,     4096,    16384, 0x1d62e36e
0,     135168,     135168,     4096,    16384, 0x6623f2c7
0,     139264,     139264,     4096,    16384, 0xb473cbdc
0,     143360,     143360,     4096,    16384, 0xff9dce61
0,     147456,     147456,     4096,    16384, 0x57c5d915
0,     151552,     151552,     4096,    16384, 0x08deb294
0,     155648,     155648,     4096,    16384, 0x71b9dd75
0,     159744,     159744,     4096,    16384, 0x6e1ef44c
0,     163840,     163840,     4096,    16384, 0xaf23d707
0,     167936,     167936,     4096,    16384, 0x21f8bd51
0,     172032,     172032,     4096,    16384, 0x1c86c41c
0,     176128,     176128,     4096,    16384, 0x4aa00584
0,     180224,     180224,     4096,    16384, 0xdf88d0a6
0,     184320,     184320,     4096,    16384, 0x6cf88493
0,     188416,     188416,     4096,    16384, 0xb2f5c799
0,     192512,     192512,     4096,    16384, 0x64f0ef2f
0,     196608,     196608,     4096,    16384, 0x0f08f3a1
0,     200704,     200704,     4096,    16384, 0xb880abbc
0,     204800,     204800,     4096,    16384, 0x0384f055
0,     208896,     208896,     4096,    16384, 0x0331086c
0,     212992,     212992,     4096,    16384, 0xdf88d0a6
0,     217088,     217088,     4096,    16384, 0x6cf88493
0,     221184,     221184,     4096,    16384, 0xb2f5c799
0,     225280,     225280,     4096,    16384, 0x64f0ef2f
0,     229376,     229376,     4096,    16384, 0x0f08f3a1
0,     233472,     233472,     4096,    16384, 0xb880abbc
0,     237568,     237568,     4096,    16384, 0x0384f055
0,     241664,     241664,     4096,    16384, 0x0331086c
0,     245760,     245760,     4096,    16384, 0xdf88d0a6
0,     249856,     249856,     4096,    16384, 0x6cf88493
0,     253952,     253952,     4096,    16384, 0xb2f5c799
0,     258048,     258048,     4096,    16384, 0x64f0ef2f
0,     262144,     262144,     2456,     9824, 0x80b21ec1
